{
    "asset" : {
        "generator" : "Khronos glTF Blender I/O v1.6.16",
        "version" : "2.0"
    },
    "scene" : 0,
    "scenes" : [
        {
            "name" : "Scene",
            "nodes" : [
                0,
                1,
                2,
                3
            ]
        }
    ],
    "nodes" : [
        {
            "mesh" : 0,
            "name" : "Interior_Serpentin",
            "rotation" : [
                0.7071067094802856,
                0,
                0,
                0.7071068286895752
            ],
            "scale" : [
                0.009999999776482582,
                0.009999999776482582,
                0.009999999776482582
            ]
        },
        {
            "mesh" : 1,
            "name" : "Filtros",
            "rotation" : [
                0.7071067094802856,
                0,
                0,
                0.7071068286895752
            ],
            "scale" : [
                0.009999999776482582,
                0.009999999776482582,
                0.009999999776482582
            ]
        },
        {
            "mesh" : 2,
            "name" : "TDXP_Caja",
            "rotation" : [
                0.7071067094802856,
                0,
                0,
                0.7071068286895752
            ],
            "scale" : [
                0.009999999776482582,
                0.009999999776482582,
                0.009999999776482582
            ]
        },
        {
            "name" : "Light",
            "rotation" : [
                0.16907575726509094,
                0.7558803558349609,
                -0.27217137813568115,
                0.570947527885437
            ],
            "translation" : [
                5.576753616333008,
                7.467686176300049,
                -4.0657854080200195
            ]
        }
    ],
    "materials" : [
        {
            "doubleSided" : true,
            "name" : "wire_000000000",
            "pbrMetallicRoughness" : {
                "baseColorTexture" : {
                    "index" : 0
                },
                "roughnessFactor" : 0.858578622341156
            }
        },
        {
            "doubleSided" : true,
            "name" : "TDXP_Caja.001",
            "pbrMetallicRoughness" : {
                "baseColorTexture" : {
                    "index" : 1
                },
                "roughnessFactor" : 0.858578622341156
            }
        }
    ],
    "meshes" : [
        {
            "name" : "Mesh.029",
            "primitives" : [
                {
                    "attributes" : {
                        "POSITION" : 0,
                        "NORMAL" : 1,
                        "TEXCOORD_0" : 2
                    },
                    "indices" : 3,
                    "material" : 0
                }
            ]
        },
        {
            "name" : "Mesh.030",
            "primitives" : [
                {
                    "attributes" : {
                        "POSITION" : 4,
                        "NORMAL" : 5,
                        "TEXCOORD_0" : 6
                    },
                    "indices" : 7,
                    "material" : 0
                }
            ]
        },
        {
            "name" : "Mesh.031",
            "primitives" : [
                {
                    "attributes" : {
                        "POSITION" : 8,
                        "NORMAL" : 9,
                        "TEXCOORD_0" : 10
                    },
                    "indices" : 11,
                    "material" : 1
                }
            ]
        }
    ],
    "textures" : [
        {
            "sampler" : 0,
            "source" : 0
        },
        {
            "sampler" : 0,
            "source" : 1
        }
    ],
    "images" : [
        {
            "mimeType" : "image/png",
            "name" : "Serpentin_Base_Color",
            "uri" : "Serpentin_Base_Color.png"
        },
        {
            "mimeType" : "image/png",
            "name" : "TDXP_Caja_Roughness",
            "uri" : "TDXP_Caja_Roughness.png"
        }
    ],
    "accessors" : [
        {
            "bufferView" : 0,
            "componentType" : 5126,
            "count" : 30943,
            "max" : [
                39.23686218261719,
                87.00313568115234,
                -3.2536659240722656
            ],
            "min" : [
                -44.00867462158203,
                -85.94490051269531,
                -84.1844253540039
            ],
            "type" : "VEC3"
        },
        {
            "bufferView" : 1,
            "componentType" : 5126,
            "count" : 30943,
            "type" : "VEC3"
        },
        {
            "bufferView" : 2,
            "componentType" : 5126,
            "count" : 30943,
            "type" : "VEC2"
        },
        {
            "bufferView" : 3,
            "componentType" : 5123,
            "count" : 110862,
            "type" : "SCALAR"
        },
        {
            "bufferView" : 4,
            "componentType" : 5126,
            "count" : 32,
            "max" : [
                -42.49071502685547,
                -2.2847511768341064,
                -5.102363586425781
            ],
            "min" : [
                -43.49073028564453,
                -81.36195373535156,
                -82.40460968017578
            ],
            "type" : "VEC3"
        },
        {
            "bufferView" : 5,
            "componentType" : 5126,
            "count" : 32,
            "type" : "VEC3"
        },
        {
            "bufferView" : 6,
            "componentType" : 5126,
            "count" : 32,
            "type" : "VEC2"
        },
        {
            "bufferView" : 7,
            "componentType" : 5123,
            "count" : 36,
            "type" : "SCALAR"
        },
        {
            "bufferView" : 8,
            "componentType" : 5126,
            "count" : 20391,
            "max" : [
                44.0086669921875,
                83.90574645996094,
                0.36284637451171875
            ],
            "min" : [
                -43.49951934814453,
                -87.00313568115234,
                -87.8695297241211
            ],
            "type" : "VEC3"
        },
        {
            "bufferView" : 9,
            "componentType" : 5126,
            "count" : 20391,
            "type" : "VEC3"
        },
        {
            "bufferView" : 10,
            "componentType" : 5126,
            "count" : 20391,
            "type" : "VEC2"
        },
        {
            "bufferView" : 11,
            "componentType" : 5123,
            "count" : 32103,
            "type" : "SCALAR"
        }
    ],
    "bufferViews" : [
        {
            "buffer" : 0,
            "byteLength" : 371316,
            "byteOffset" : 0
        },
        {
            "buffer" : 0,
            "byteLength" : 371316,
            "byteOffset" : 371316
        },
        {
            "buffer" : 0,
            "byteLength" : 247544,
            "byteOffset" : 742632
        },
        {
            "buffer" : 0,
            "byteLength" : 221724,
            "byteOffset" : 990176
        },
        {
            "buffer" : 0,
            "byteLength" : 384,
            "byteOffset" : 1211900
        },
        {
            "buffer" : 0,
            "byteLength" : 384,
            "byteOffset" : 1212284
        },
        {
            "buffer" : 0,
            "byteLength" : 256,
            "byteOffset" : 1212668
        },
        {
            "buffer" : 0,
            "byteLength" : 72,
            "byteOffset" : 1212924
        },
        {
            "buffer" : 0,
            "byteLength" : 244692,
            "byteOffset" : 1212996
        },
        {
            "buffer" : 0,
            "byteLength" : 244692,
            "byteOffset" : 1457688
        },
        {
            "buffer" : 0,
            "byteLength" : 163128,
            "byteOffset" : 1702380
        },
        {
            "buffer" : 0,
            "byteLength" : 64206,
            "byteOffset" : 1865508
        }
    ],
    "samplers" : [
        {
            "magFilter" : 9729,
            "minFilter" : 9987
        }
    ],
    "buffers" : [
        {
            "byteLength" : 1929716,
            "uri" : "TDxu20.bin"
        }
    ]
}
